<svg width="512" height="512" viewBox="0 0 512 512" fill="none" xmlns="http://www.w3.org/2000/svg">
<g clip-path="url(#clip0_6_10)">
<rect width="512" height="512" fill="black"/>
<rect width="512" height="512" fill="black"/>
<path d="M206.5 318H194V305.5C194 278 171.5 255.5 144 255.5C116.5 255.5 94 278 94 305.5V318H81.5C74 318 69 323 69 330.5V430.5C69 438 74 443 81.5 443H206.5C214 443 219 438 219 430.5V330.5C219 323 214 318 206.5 318ZM169 318H119V305.5C119 291.75 130.25 280.5 144 280.5C157.75 280.5 169 291.75 169 305.5V318Z" fill="white"/>
<path d="M406.5 143H295.25L266.5 99.25C265.25 95.5 260.25 93 256.5 93H131.5C110.25 93 94 109.25 94 130.5V249.25C107.75 236.75 125.25 230.5 144 230.5C181.5 230.5 212.75 258 217.75 295.5C232.75 300.5 244 314.25 244 330.5V393H406.5C427.75 393 444 376.75 444 355.5V180.5C444 159.25 427.75 143 406.5 143ZM419 338L311.5 168H406.5C414 168 419 173 419 180.5V338Z" fill="white"/>
<path d="M134.155 359.75L144.58 396.125L154.855 359.75H170.23L151.855 413H137.305L118.705 359.75H134.155Z" fill="black"/>
</g>
<defs>
<clipPath id="clip0_6_10">
<rect width="512" height="512" fill="white"/>
</clipPath>
</defs>
</svg>
